@startuml
package org {
    abstract class AbstractList
    abstract AbstractCollection{
        -String name
    }
    interface List
    interface Collection

    List <|-- AbstractList
    Collection <|-- AbstractCollection

    Collection <|- List
    AbstractCollection <|- AbstractList
    AbstractList <|-- ArrayList

    class ArrayList {
    Object[] elementData
    size()
    }

    enum TimeUnit {
    DAYS
    HOURS
    MINUTES
    }

    enum Zhou {
    Monday
    tuesDay
    }
}
@enduml